<?xml version="1.0" encoding="UTF-8"?>
<svg id="Calque_1" data-name="Calque 1" xmlns="http://www.w3.org/2000/svg" viewBox="0 0 15 15">
  <path d="M1.5,9.76c-.43,0-.75-.34-.75-.75v-2.98c0-.4.31-.75.71-.75h1.97s2.79-2.79,2.79-2.79c.22-.22.55-.26.83-.14.24.11.44.36.44.67v8.96c0,.32-.17.57-.42.69-.27.13-.61.11-.83-.12l-2.81-2.8h-1.93Z"/>
  <path d="M13.25,8.48c.31.31.28.78,0,1.06-.3.3-.77.28-1.07-.02l-.94-.95-.99.99c-.29.29-.77.25-1.04-.03s-.29-.75,0-1.04l.97-.98-.96-.96c-.3-.3-.3-.76-.01-1.06s.76-.31,1.06-.01l.98.97.99-.99c.29-.29.77-.25,1.04.03.29.29.29.76-.01,1.06l-.96.96.97.97Z"/>
</svg>