<?xml version="1.0" encoding="UTF-8"?>
<svg id="Calque_1" data-name="Calque 1" xmlns="http://www.w3.org/2000/svg" viewBox="0 0 15 15">
  <path d="M1.81,9.64c-.41,0-.72-.32-.72-.72v-2.84c0-.38.29-.71.68-.71h1.87s2.65-2.65,2.65-2.65c.21-.21.52-.25.78-.13.23.1.42.34.42.64v8.52c0,.3-.16.55-.4.66-.25.12-.58.1-.79-.11l-2.67-2.66h-1.83Z"/>
  <path d="M11.81,12.55c-.28.27-.73.25-.99-.03s-.27-.72,0-.99c2.22-2.22,2.22-5.83,0-8.05-.26-.26-.28-.69-.02-.98.22-.25.7-.34.97-.08,2.84,2.75,2.87,7.33.05,10.13Z"/>
  <path d="M9.86,10.47c-.3.31-.75.36-1.06.05s-.27-.74.03-1.05c1.07-1.09,1.07-2.86,0-3.95-.3-.3-.33-.75-.03-1.05s.76-.25,1.05.04c1.6,1.66,1.61,4.27.01,5.95Z"/>
</svg>